<svg xmlns="http://www.w3.org/2000/svg" width="45" height="45" viewBox="0 0 45 45" fill="none">
  <path d="M39.375 11.25V37.5C39.375 38.4946 38.9799 39.4484 38.2767 40.1516C37.5734 40.8549 36.6196 41.25 35.625 41.25H9.375C8.38044 41.25 7.42661 40.8549 6.72335 40.1516C6.02009 39.4484 5.625 38.4946 5.625 37.5V11.25L11.25 3.75H33.75L39.375 11.25ZM5.625 11.25H39.375M30 18.75C30 20.7391 29.2098 22.6468 27.8033 24.0533C26.3968 25.4598 24.4891 26.25 22.5 26.25C20.5109 26.25 18.6032 25.4598 17.1967 24.0533C15.7902 22.6468 15 20.7391 15 18.75" stroke="#2E2E2E" stroke-width="3" stroke-linecap="round" stroke-linejoin="round"/>
</svg>